<svg xmlns="http://www.w3.org/2000/svg" version="1.1" xmlns:xlink="http://www.w3.org/1999/xlink" xmlns:svgjs="http://svgjs.dev/svgjs" width="1440" height="560" preserveAspectRatio="none" viewBox="0 0 1440 560"><g mask="url(&quot;#SvgjsMask1010&quot;)" fill="none"><rect width="1440" height="560" x="0" y="0" fill="url(&quot;#SvgjsLinearGradient1011&quot;)"></rect><path d="M679.374,161.982C716.292,162.842,751.676,143.096,768.99,110.478C785.395,79.573,776.043,43.327,758.392,13.116C740.935,-16.764,713.98,-42.727,679.374,-42.909C644.513,-43.092,615.782,-18.225,598.902,12.277C582.604,41.727,580.772,76.817,596.708,106.464C613.552,137.8,643.808,161.153,679.374,161.982" fill="rgba(28, 83, 142, 0.4)" class="triangle-float1"></path><path d="M597.9257423984333 400.82817640199875L629.46155929523 527.3114295351487 755.9448124283799 495.7756126383519 724.4089955315832 369.292359505202z" fill="rgba(28, 83, 142, 0.4)" class="triangle-float3"></path><path d="M386.809,254.065C430.904,254.166,463.04,216.379,483.447,177.291C502.135,141.497,503.095,100.824,485.883,64.297C465.284,20.581,435.105,-26.097,386.809,-27.796C336.698,-29.559,296.147,11.466,274.875,56.872C256.529,96.034,269.589,139.24,290.937,176.849C312.648,215.097,342.829,253.964,386.809,254.065" fill="rgba(28, 83, 142, 0.4)" class="triangle-float1"></path><path d="M155.9956588146776 426.54920824505143L238.97853578738216 380.55104842348976 192.9803759658205 297.56817145078526 109.99749899311595 343.5663312723469z" fill="rgba(28, 83, 142, 0.4)" class="triangle-float2"></path><path d="M243.7793630620006 349.3440594171391L243.7793630620006 245.67471070582636 140.1100143506879 245.67471070582639 140.1100143506879 349.3440594171391z" fill="rgba(28, 83, 142, 0.4)" class="triangle-float1"></path><path d="M69.94098743855537 317.80684528072277L122.99641135087835 481.6257099097396 225.65522228385785 371.5376132568724z" fill="rgba(28, 83, 142, 0.4)" class="triangle-float1"></path></g><defs><mask id="SvgjsMask1010"><rect width="1440" height="560" fill="#ffffff"></rect></mask><linearGradient x1="15.28%" y1="-39.29%" x2="84.72%" y2="139.29%" gradientUnits="userSpaceOnUse" id="SvgjsLinearGradient1011"><stop stop-color="#0e2a47" offset="0"></stop><stop stop-color="rgba(58, 69, 75, 1)" offset="1"></stop></linearGradient><style>
                @keyframes float1 {
                    0%{transform: translate(0, 0)}
                    50%{transform: translate(-10px, 0)}
                    100%{transform: translate(0, 0)}
                }

                .triangle-float1 {
                    animation: float1 5s infinite;
                }

                @keyframes float2 {
                    0%{transform: translate(0, 0)}
                    50%{transform: translate(-5px, -5px)}
                    100%{transform: translate(0, 0)}
                }

                .triangle-float2 {
                    animation: float2 4s infinite;
                }

                @keyframes float3 {
                    0%{transform: translate(0, 0)}
                    50%{transform: translate(0, -10px)}
                    100%{transform: translate(0, 0)}
                }

                .triangle-float3 {
                    animation: float3 6s infinite;
                }
            </style></defs></svg>